<?xml version="1.0" standalone="no"?>
<!DOCTYPE svg PUBLIC "-//W3C//DTD SVG 20010904//EN"
        "http://www.w3.org/TR/2001/REC-SVG-20010904/DTD/svg10.dtd">
<svg version="1.0" xmlns="http://www.w3.org/2000/svg"
     width="276.000000pt" height="276.000000pt" viewBox="0 0 276.000000 276.000000"
     preserveAspectRatio="xMidYMid meet">
    <metadata>
        Created by potrace 1.11, written by Peter Selinger 2001-2013
    </metadata>
    <g transform="translate(0.000000,276.000000) scale(0.100000,-0.100000)"
       fill="#000000" stroke="none">
        <path d="M1306 2294 c-17 -17 -17 -17 -17 -199 0 -69 0 -134 0 -145 1 -27 40
-60 72 -60 15 0 37 8 49 18 20 17 22 25 22 157 0 208 -1 212 -18 229 -9 9 -32
16 -54 16 -22 0 -45 -7 -54 -16z"/>
        <path d="M406 1918 c-24 -22 -30 -36 -27 -69 1 -16 172 -195 227 -238 15 -12
35 -21 46 -21 28 0 68 45 68 76 0 47 -235 274 -284 274 -3 0 -16 -10 -30 -22z"/>
        <path d="M2123 1816 c-135 -133 -145 -154 -98 -202 43 -42 70 -28 200 103 63
64 116 124 116 132 4 48 -25 84 -68 87 -23 1 -49 -20 -150 -120z"/>
        <path d="M1288 1738 c-232 -30 -438 -155 -568 -348 -41 -60 -95 -173 -107
-223 -15 -66 -22 -110 -28 -171 -3 -38 -8 -72 -10 -76 -3 -5 -2 -15 1 -24 5
-13 22 -16 79 -16 l74 0 0 70 c0 178 67 339 191 460 77 76 146 119 250 156 66
24 89 27 200 27 108 0 136 -3 206 -26 192 -63 344 -214 409 -405 23 -69 41
-186 37 -250 l-2 -33 73 3 72 3 -1 75 c-2 66 -5 100 -19 170 -13 67 -74 201
-125 274 -67 97 -187 200 -298 256 -128 65 -299 96 -434 78z"/>
        <path d="M55 1022 c-35 -7 -55 -33 -55 -73 0 -63 17 -69 211 -69 144 0 170 2
188 18 31 26 34 67 6 99 l-23 28 -153 0 c-85 0 -163 -1 -174 -3z"/>
        <path d="M2364 1018 c-55 -15 -73 -79 -32 -118 20 -18 35 -20 189 -20 153 0
168 2 193 21 31 25 34 66 7 100 -18 22 -24 23 -173 24 -85 0 -168 -3 -184 -7z"/>
        <path d="M71 589 c-51 -7 -71 -28 -71 -76 0 -70 -99 -65 1359 -65 975 0 1314
3 1330 12 43 23 47 86 7 119 -12 10 -262 13 -1298 14 -706 1 -1303 -1 -1327
-4z"/>
    </g>
</svg>
